<svg role="img" viewBox="0 0 24 24" xmlns="http://www.w3.org/2000/svg" width="24" height="24" aria-labelledby="title">
  <title id="title">OpenAI Logo</title>
  <path fill="#111111" fill-rule="evenodd" clip-rule="evenodd" d="M22.281 11.364a5.459 5.459 0 0 0 .068-.89 5.474 5.474 0 0 0-7.64-5.042 5.473 5.473 0 0 0-9.738 3.156 5.473 5.473 0 0 0 1.06 10.765h.182A5.473 5.473 0 0 0 8.945 24a5.474 5.474 0 0 0 5.485-5.046 5.474 5.474 0 0 0 7.85-5.21zm-9.336 9.486a3.692 3.692 0 0 1-5.085-2.7ಲ2.939 1.701a1.237 1.237 0 0 0 1.856-.938ವ-7.077ಲ2.938 1.7ವ7.043a3.692 3.692 0 0 1-1.648 3.271zm7.77-6.477a3.69 3.69 0 0 1-4.143 3.92ವ-3.403c.024-.081.036-.166.036-.252ವ-3.33ಲ2.893-1.67 2.475 1.443c.26.15.56.19.843.112s.521-.272.662-.533a1.238 1.238 0 0 0-.451-1.64ಲ-2.32-1.352 2.337-1.349a3.692 3.692 0 0 1-2.332 6.092zm1.566-8.978-2.367 1.37V5.693a3.688 3.688 0 0 1 3.776 5.702ಲ-2.408-1.4zM7.674 4.25a3.69 3.69 0 0 1 4.144-3.92ವ3.403a1.23 1.23 0 0 0-.036.252ವ3.342L8.85 8.997 6.375 7.553a1.238 1.238 0 1 0-1.21 2.171ಲ7.49 11.076 5.15 12.44a3.69 3.69 0 0 1 2.524-8.19zM3.25 17.916a3.69 3.69 0 0 1 .92-5.849ಲ2.367-1.37ವ2.548a1.24 1.24 0 0 0 1.872 1.072ಲ3.832-2.194ವ3.375l-3.052 1.75-2.475-1.442a1.238 1.238 0 1 0-1.213 2.17ಲ2.32 1.353-2.337 1.348a3.672 3.672 0 0 1-1.106-.361zm8.569-7.404ಲ8.881 9.07ಲ2.938-1.7 2.938 1.7-2.938 1.701zM8.415 19.4a3.688 3.688 0 0 1-3.776-5.703ಲ2.407 1.4ವ2.57a3.69 3.69 0 0 1 1.37 1.732z"/>
</svg>

